<svg id="Calque_1" data-name="Calque 1" xmlns="http://www.w3.org/2000/svg" viewBox="0 0 660.33 256.4"><defs><style>.cls-1{fill:#ff032c;}</style></defs><title>Sweetch-logo-Red</title><path class="cls-1" d="M30.87,30.06c0-5,6.05-7.87,13.31-7.87,7.06,0,13.72,3,18.76,6.66l12.31-19C68.79,4.84,54.87,0,42.16,0,22.8,0,4.64,11.7,4.64,30.46c0,31.47,47.41,26.23,47.41,41,0,4.84-5.44,8.27-12.51,8.27-9.88,0-20.17-3.63-26.83-9.69L0,88.77a67.69,67.69,0,0,0,39.34,13.11c20.58,0,38.94-11.5,38.94-30.26,0-33.89-47.41-28.85-47.41-41.56"/><polygon class="cls-1" points="220.85 2.02 196.85 59.11 172.44 2.02 154.28 2.02 129.67 59.11 105.86 2.02 79.44 2.02 120.59 99.86 138.75 99.86 163.36 42.97 187.97 99.86 206.13 99.86 247.28 2.02 220.85 2.02"/><path class="cls-1" d="M291,101.76l-.51,0A49.27,49.27,0,0,1,274.89,98a50.81,50.81,0,0,1-27.06-27.06,50.23,50.23,0,0,1-4-19.84,50.28,50.28,0,0,1,4-19.85A50.81,50.81,0,0,1,274.89,4.16,50.31,50.31,0,0,1,294.74.21a49.19,49.19,0,0,1,22.55,5.3,50.63,50.63,0,0,1,17.32,14.34A48.51,48.51,0,0,1,343.55,37l.15.49-17.19,21H266.13a29.6,29.6,0,0,0,3.46,8,29.22,29.22,0,0,0,6.49,7.41,30.19,30.19,0,0,0,8.6,4.85,29.18,29.18,0,0,0,10.06,1.73,28.86,28.86,0,0,0,8.87-1.37,18.35,18.35,0,0,0,8.21-5.82l.44-.53L313.78,74l-.44.53ZM268.75,37.05h51.82c-.3-.51-.6-1-.89-1.52a28.83,28.83,0,0,0-1.74-2.72,30.13,30.13,0,0,0-10.22-8.2,29.07,29.07,0,0,0-13-3,28.74,28.74,0,0,0-16,4.61,29.88,29.88,0,0,0-10,10.82"/><path class="cls-1" d="M424.08,42.17H397.91V77.52h-22.5V99.67h22.5V136c0,13.89,2.21,22.54,7.25,29.18,6.64,8.86,18.11,14.09,33.81,14.09,5,0,12.89-.8,16.31-2l-4-22.14a64.16,64.16,0,0,1-10.67,1c-6.44,0-10.67-1.82-13.29-4.84-2.21-2.61-3.22-6.23-3.22-12.27V99.67h32.21V77.52H424.08Z"/><path class="cls-1" d="M513.49,155.16c-15.9,0-27-11.27-27-26.57,0-14.9,11.27-26.78,26.36-26.78,9.47,0,17.32,4.84,22.56,11.68L554,97.18c-9.06-11.67-24.15-19.52-41.07-19.52-29.79,0-52.53,22.54-52.53,50.93,0,28.18,22.14,50.73,52.33,50.73,18.33,0,32.82-6.65,44.29-21.95l-20.13-15.09c-4.22,6.44-12.68,12.88-23.35,12.88"/><path class="cls-1" d="M650.27,95.37a44,44,0,0,0-33.82-15.7,43.28,43.28,0,0,0-26.57,9.06V42.42H563.71v136.9h26.17V157.14c0-.15,0-.3,0-.45V123.63c0-.15,0-.3,0-.45v-1.24a14.4,14.4,0,0,1,.75-3.9,21.32,21.32,0,0,1,3-6.57c.17-.24.33-.45.5-.67a21.41,21.41,0,0,1,17.09-8.58h1.46a21.48,21.48,0,0,1,21.42,21.41v3.31c0,.22,0,.41,0,.64v51.74h26.16V129.59c0-16.71-3.62-26.57-10.06-34.22"/><path class="cls-1" d="M323.93,176.08a50.24,50.24,0,0,1-19.85-4A50.72,50.72,0,0,1,277,145.07c-.48-1.12-.92-2.28-1.32-3.47l-.18-.5,24.13-29.9h50.11c-.31-.5-.6-1-.89-1.52-.55-1-1.13-1.87-1.74-2.72a30.22,30.22,0,0,0-10.22-8.2,29.14,29.14,0,0,0-13-3,2.09,2.09,0,0,1-.47,0h-.86a42.32,42.32,0,0,0-9.19,1l-2.58.47,1.59-2,16.73-20.66.53.05a48.53,48.53,0,0,1,16.76,5A50.32,50.32,0,0,1,363.81,94a49.44,49.44,0,0,1,11,31.2,36.71,36.71,0,0,1-.58,6.61l-.15.79H295.31a30.3,30.3,0,0,0,3.46,8.06,29.21,29.21,0,0,0,6.5,7.4,29.72,29.72,0,0,0,8.6,4.85,29.18,29.18,0,0,0,10.06,1.73,28.38,28.38,0,0,0,12-2.55,30.68,30.68,0,0,0,9.8-7.14l.29-.32h24.73l-.53,1.34a35.18,35.18,0,0,1-2.82,5.54c-1.08,1.71-2.28,3.42-3.55,5.08a51.51,51.51,0,0,1-17.34,14.17,49.12,49.12,0,0,1-22.54,5.3"/><path class="cls-1" d="M230,220.55h16a7.79,7.79,0,0,0-7.82-6.25,7.94,7.94,0,0,0-8.17,6.25m8.37,21.7c-10.41,0-17.82-7.48-17.82-17.82,0-10.13,7.55-17.68,17.89-17.68,10,0,18.23,7.14,17.75,19.93H229.69c.4,4,3.4,7.48,9.18,7.48,3.26,0,6.12-1.43,7.21-3.74h9.72c-2,6.87-8.77,11.83-17.41,11.83"/><path class="cls-1" d="M261,207.49h9.32v3.88c1.77-2.72,5.31-4.62,9.73-4.62,8.23,0,13.13,6,13.13,14.82v19.94h-9.32V223.14c0-4.9-2.11-7.9-6-7.9-4.28,0-7.55,3.13-7.55,9.67v16.6H261Z"/><path class="cls-1" d="M307,220.55h16a7.78,7.78,0,0,0-7.82-6.25,7.92,7.92,0,0,0-8.16,6.25m8.36,21.7c-10.4,0-17.82-7.48-17.82-17.82,0-10.13,7.55-17.68,17.89-17.68,10,0,18.23,7.14,17.76,19.93H306.67c.41,4,3.4,7.48,9.18,7.48,3.26,0,6.12-1.43,7.21-3.74h9.73c-2,6.87-8.78,11.83-17.42,11.83"/><path class="cls-1" d="M338,207.49h9.32v5.45a9,9,0,0,1,8.43-5.86,10.74,10.74,0,0,1,3.13.41V217a12.72,12.72,0,0,0-4.22-.75c-4.42,0-7.34,3.47-7.34,9.05v16.26H338Z"/><path class="cls-1" d="M377.6,215.25a8.71,8.71,0,1,0,8.64,8.7,8.46,8.46,0,0,0-8.64-8.7m-7.48,28.36c1.16,3.47,3.81,5,7.69,5,4.08,0,7.68-2.66,7.68-8v-4c-1.77,2.51-5.51,4.49-9.86,4.49-8.84,0-16.05-7.62-16.05-17.15s7.21-17.21,16.05-17.21c4.35,0,8.09,2,9.86,4.56v-3.81h9.32V239.4c0,12.31-8.37,17-17.21,17-9.59,0-15.92-5.51-16.6-12.79Z"/><polygon class="cls-1" points="404.6 255.72 411.74 239.6 397.45 207.49 407.66 207.49 416.77 229.53 425.82 207.49 436.09 207.49 414.73 255.72 404.6 255.72"/></svg>